# xmcd
#
# Track frame offsets: 
#        150
#        13660
#        32250
#        47405
#        60288
#        73060
#        85800
#        102160
#        115880
#        130880
#        146175
#        160130
#        175130
#        189230
#        208880
#        223205
#        236250
#        248250
#        261525
#        280050
#        295800
#        310650
#
# Disc length: 4337 seconds
#
# Revision: 2
# Processed by: cddbd v1.5.2PL0 Copyright (c) Steve Scherf et al.
# Submitted via: ExactAudioCopy v1.3
#
DISCID=3410ef16
DTITLE=Mickey Gilley - The Very Best of Mickey Gilley
DYEAR=1991
DGENRE=Country
TTITLE0=You've Really Got A Hold On Me
TTITLE1=For The Good Times
TTITLE2=Put Your Dreams Away
TTITLE3=There Goes My Everything
TTITLE4=Let It Be Me
TTITLE5=The Most Beautiful Girl
TTITLE6=Stand By Me
TTITLE7=My Special Angel
TTITLE8=Doo-Wah Days
TTITLE9=Funny How Time Slips Away
TTITLE10=Together Again
TTITLE11=Fool For Your Love
TTITLE12=You Don't Know Me
TTITLE13=I Can't Stop Lovin' You
TTITLE14=Since I Met You Baby
TTITLE15=It's All In The Game
TTITLE16=That's All That Matters
TTITLE17=True Love Ways
TTITLE18=Since I Fell For You
TTITLE19=Lonely Nights
TTITLE20=Tears Of The Lonely
TTITLE21=Talk To Me
EXTD=The Very Best Of Mickey Gilley
EXTT0=
EXTT1=
EXTT2=
EXTT3=
EXTT4=
EXTT5=
EXTT6=
EXTT7=
EXTT8=
EXTT9=
EXTT10=
EXTT11=
EXTT12=
EXTT13=
EXTT14=
EXTT15=
EXTT16=
EXTT17=
EXTT18=
EXTT19=
EXTT20=
EXTT21=
PLAYORDER=
